# xmcd
#
# Track frame offsets: 
#        150
#        20777
#        41190
#        57505
#        74830
#        92897
#        111232
#        129017
#        152465
#        168095
#
# Disc length: 2474 seconds
#
# Revision: 0
# Processed by: cddbd v1.5.2PL0 Copyright (c) Steve Scherf et al.
# Submitted via: ExactAudioCopyFreeDBPlugin 1.0
#
DISCID=8809a80a
DTITLE=Johnny Gill - Johnny Gill
DYEAR=1983
DGENRE=Soul
TTITLE0=Super Love
TTITLE1=Thank You
TTITLE2=Show Her Love
TTITLE3=Guilty
TTITLE4=When Something Is Wrong With My Baby
TTITLE5=Every Radio
TTITLE6=I'm Sorry
TTITLE7=I Love Makin' Music
TTITLE8=You
TTITLE9=Half Steppin'
EXTD=
EXTT0=
EXTT1=
EXTT2=
EXTT3=
EXTT4=
EXTT5=
EXTT6=
EXTT7=
EXTT8=
EXTT9=
PLAYORDER=
